<svg xmlns="http://www.w3.org/2000/svg" viewBox="0 0 400 225" fill="none">
  <circle cx="100" cy="60" r="2" fill="url(#g4)" opacity="0.15"/>
  <circle cx="120" cy="55" r="2" fill="url(#g4)" opacity="0.12"/>
  <circle cx="140" cy="62" r="2" fill="url(#g4)" opacity="0.14"/>
  <circle cx="160" cy="52" r="2" fill="url(#g4)" opacity="0.1"/>
  <circle cx="180" cy="58" r="2" fill="url(#g4)" opacity="0.13"/>
  <circle cx="200" cy="65" r="2" fill="url(#g4)" opacity="0.11"/>
  <circle cx="220" cy="50" r="2" fill="url(#g4)" opacity="0.15"/>
  <circle cx="240" cy="60" r="2" fill="url(#g4)" opacity="0.12"/>
  <circle cx="260" cy="55" r="2" fill="url(#g4)" opacity="0.14"/>
  <circle cx="280" cy="63" r="2" fill="url(#g4)" opacity="0.1"/>
  <circle cx="300" cy="52" r="2" fill="url(#g4)" opacity="0.13"/>
  <circle cx="520" cy="120" r="2" fill="url(#g4)" opacity="0.1"/>
  <circle cx="540" cy="130" r="2" fill="url(#g4)" opacity="0.12"/>
  <circle cx="560" cy="125" r="2" fill="url(#g4)" opacity="0.11"/>
  <path d="M100 60 Q120 48 140 62 Q160 45 180 58 Q200 70 220 50 Q240 65 260 55 Q280 68 300 52" stroke="url(#g4)" strokeWidth="0.5" opacity="0.06" fill="none"/>
  <path d="M200 112 Q250 80 300 100 Q350 120 400 90" stroke="url(#g4)" strokeWidth="0.3" opacity="0.04" fill="none"/>
  <path d="M60 170 Q120 160 180 180 Q240 200 300 170 Q360 140 380 160" stroke="url(#g4)" strokeWidth="0.3" opacity="0.03" fill="none"/>
  <circle cx="60" cy="170" r="1.5" fill="url(#g4)" opacity="0.08"/>
  <circle cx="180" cy="180" r="1.5" fill="url(#g4)" opacity="0.06"/>
  <circle cx="300" cy="170" r="1.5" fill="url(#g4)" opacity="0.07"/>
  <circle cx="380" cy="160" r="1.5" fill="url(#g4)" opacity="0.05"/>
  <defs>
    <linearGradient id="g4" x1="0%" y1="0%" x2="100%" y2="100%">
      <stop offset="0%" stopColor="#34D399"/>
      <stop offset="100%" stopColor="#14B8A6"/>
    </linearGradient>
  </defs>
</svg>
